<?xml version="1.0" standalone="no"?>
<!DOCTYPE svg PUBLIC "-//W3C//DTD SVG 20010904//EN"
 "http://www.w3.org/TR/2001/REC-SVG-20010904/DTD/svg10.dtd">
<svg version="1.0" xmlns="http://www.w3.org/2000/svg"
 width="1280.000000pt" height="727.000000pt" viewBox="0 0 1280.000000 727.000000"
 preserveAspectRatio="xMidYMid meet">

<g transform="translate(0.000000,727.000000) scale(0.100000,-0.100000)"
fill="#000000" stroke="none">
<path d="M3365 6390 c-71 -10 -240 -39 -375 -63 -135 -25 -296 -51 -358 -58
-143 -15 -364 -7 -577 21 -172 23 -225 21 -309 -10 -130 -49 -156 -166 -64
-282 l32 -41 -89 6 c-50 4 -139 18 -200 32 -233 54 -293 65 -370 64 -153 -1
-243 -66 -253 -182 -6 -80 11 -126 73 -194 50 -56 169 -143 195 -143 5 0 10
-4 10 -9 0 -4 -29 -11 -65 -14 -91 -9 -143 -26 -176 -59 -51 -51 -50 -127 1
-190 55 -67 169 -113 630 -253 101 -31 198 -66 215 -78 37 -27 54 -48 130
-162 219 -326 304 -428 388 -460 41 -16 48 -21 42 -39 -3 -12 -9 -51 -12 -88
-5 -55 -2 -74 16 -111 31 -63 105 -130 177 -157 79 -30 221 -38 283 -17 l44
16 86 -52 c197 -119 417 -177 761 -201 l165 -12 -35 -18 c-52 -28 -226 -162
-294 -225 -85 -81 -218 -258 -269 -357 l-16 -31 46 -22 c25 -12 43 -24 41 -26
-3 -3 -26 -11 -52 -19 l-47 -14 -31 34 c-34 37 -102 74 -137 74 -18 0 -22 4
-15 18 4 9 9 38 12 64 7 88 -61 169 -190 227 -100 45 -149 52 -351 45 -204 -8
-225 -14 -288 -81 -48 -51 -62 -76 -89 -155 -67 -200 47 -372 347 -522 217
-109 522 -176 658 -146 28 7 122 15 210 19 190 10 268 27 392 87 90 45 92 45
123 29 18 -9 29 -19 26 -22 -2 -3 -39 -20 -80 -38 -163 -71 -315 -207 -445
-399 -31 -45 -33 -51 -22 -86 10 -35 53 -82 82 -92 9 -3 1 -24 -23 -64 -20
-33 -44 -90 -54 -127 -10 -41 -22 -67 -30 -67 -8 0 -53 18 -100 40 -267 123
-481 141 -652 54 -42 -22 -89 -49 -104 -62 -37 -31 -51 -87 -38 -146 42 -189
360 -530 583 -625 171 -73 403 -68 539 12 102 60 199 166 229 252 11 31 30 68
43 83 13 15 70 83 127 151 170 202 152 185 176 172 56 -30 193 8 222 61 15 30
122 127 197 181 192 138 473 174 632 81 105 -62 163 -139 231 -305 l38 -94 49
-2 c27 -2 68 -5 90 -8 41 -6 42 -7 48 -53 9 -71 74 -320 91 -350 8 -15 20 -34
27 -43 9 -13 3 -28 -34 -80 -74 -106 -92 -159 -93 -270 0 -88 2 -99 28 -137
53 -81 144 -128 317 -164 172 -36 276 -13 365 83 122 130 131 252 34 443 l-40
79 12 67 c8 45 10 138 7 278 l-5 212 36 11 c20 6 66 25 103 41 59 27 67 34 62
53 -3 13 1 27 10 34 22 18 46 104 46 162 0 64 -23 171 -66 304 -55 174 -102
270 -190 389 l-63 84 38 25 c91 60 157 124 171 166 12 36 11 45 -5 81 -30 65
-110 132 -235 195 -193 97 -395 235 -532 364 l-61 57 46 30 c110 71 395 357
535 536 26 33 -33 177 -90 222 l-33 26 24 47 c69 135 303 458 403 555 87 85
142 116 306 172 148 50 204 79 270 140 52 48 90 121 76 144 -20 31 -40 36
-103 26 -34 -6 -61 -8 -61 -7 0 2 30 34 68 71 37 37 77 88 90 113 63 130 -12
220 -152 184 -67 -18 -100 -34 -179 -87 -32 -22 -61 -38 -63 -35 -3 2 2 17 10
33 40 76 51 112 51 169 0 66 -18 100 -67 129 -35 22 -54 20 -117 -9 -59 -28
-183 -145 -239 -227 -18 -27 -36 -48 -40 -48 -4 0 -8 23 -9 51 -1 62 -22 94
-84 129 -59 33 -141 34 -185 3 -48 -34 -65 -82 -75 -207 -13 -152 -26 -248
-43 -304 -8 -26 -24 -83 -36 -127 -43 -158 -142 -307 -352 -528 l-103 -108
-33 11 -32 12 58 57 c95 91 148 225 122 307 -30 95 -115 164 -201 164 -21 0
-40 4 -43 8 -3 5 2 28 11 53 10 31 14 69 11 125 -4 75 -9 91 -60 195 -62 127
-130 212 -249 315 -81 70 -219 156 -291 182 -55 19 -59 27 -20 37 63 16 82 68
36 104 -35 27 -106 36 -183 23 -61 -10 -66 -10 -92 12 -124 105 -329 104 -329
0 0 -29 0 -29 -58 0 -77 39 -166 64 -283 81 -139 19 -250 18 -414 -5z m3326
-337 c17 -10 32 -28 36 -41 8 -32 -3 -140 -15 -155 -5 -7 -13 -22 -17 -35 -4
-13 -25 -55 -47 -93 -22 -39 -38 -72 -36 -74 3 -3 60 32 129 77 183 120 264
149 317 112 29 -20 30 -89 3 -143 -40 -77 -173 -209 -240 -237 -61 -26 -24
-26 46 -1 99 36 156 43 176 22 22 -22 21 -43 -3 -82 -39 -65 -140 -123 -318
-184 -145 -50 -202 -79 -260 -132 -111 -103 -293 -349 -432 -587 -40 -69 -86
-145 -103 -169 -27 -40 -32 -43 -65 -37 -86 13 -360 171 -468 269 l-48 44 39
34 c59 50 171 163 257 259 257 290 307 417 347 882 11 131 18 151 64 178 68
42 172 11 210 -63 17 -32 18 -46 10 -102 -5 -36 -7 -65 -3 -65 12 0 38 27 101
105 88 111 173 193 223 216 51 23 61 23 97 2z m-2403 -433 c142 -16 210 -67
306 -231 129 -219 230 -295 400 -303 70 -3 72 -4 99 -42 122 -166 172 -336
147 -500 -40 -265 -245 -493 -591 -658 -299 -142 -578 -194 -988 -183 -376 10
-639 77 -841 214 -132 89 -288 237 -378 357 l-23 31 40 17 c59 25 75 55 69
132 -4 50 -16 83 -56 162 -73 144 -84 173 -84 235 0 166 157 291 600 475 308
129 600 215 893 265 105 18 159 24 309 38 8 0 52 -3 98 -9z m1101 -400 c22
-10 49 -31 60 -46 47 -59 51 -171 10 -250 -23 -43 -158 -186 -170 -179 -4 3
-10 25 -13 50 -10 64 -67 171 -128 239 l-52 59 29 21 c17 11 55 47 85 78 53
56 56 58 98 53 23 -2 60 -14 81 -25z m-27 -516 l31 -16 -32 -31 -32 -32 -20
24 c-19 23 -25 52 -12 64 10 11 32 8 65 -9z m119 -251 c126 -95 359 -195 541
-234 84 -18 86 -21 52 -71 -34 -51 -409 -427 -467 -469 -22 -16 -48 -29 -57
-29 -9 0 -46 30 -81 68 -63 66 -356 393 -373 417 -6 8 10 37 49 90 75 102 114
189 131 292 7 46 16 88 20 95 4 6 28 -13 63 -50 31 -33 86 -82 122 -109z m570
-84 c37 -47 59 -91 59 -117 0 -21 -3 -23 -32 -17 -58 11 -152 35 -156 40 -7 7
82 124 94 125 6 0 22 -14 35 -31z m-3591 -151 c35 -46 108 -127 163 -181 55
-54 96 -101 92 -105 -3 -4 -52 -7 -108 -6 -155 1 -253 43 -315 137 -23 35 -27
51 -27 116 0 104 11 121 79 121 l53 0 63 -82z m2658 -148 c138 -210 437 -516
677 -693 88 -64 201 -138 250 -163 215 -111 285 -162 311 -223 14 -32 13 -39
-2 -74 -20 -44 -51 -67 -209 -155 -285 -159 -530 -242 -865 -293 -123 -19
-187 -23 -420 -23 -244 -1 -290 2 -409 23 -237 41 -484 109 -666 185 l-60 25
3 78 c9 278 55 440 238 831 38 81 47 92 69 92 16 0 39 -13 61 -35 88 -88 300
-149 353 -101 12 11 21 25 21 33 0 22 20 15 57 -22 l34 -34 -2 -121 c-1 -67
-5 -136 -9 -153 -5 -18 -18 -69 -29 -113 -28 -110 -28 -177 1 -204 24 -22 476
-250 496 -250 7 0 29 17 48 38 50 52 274 339 274 349 0 5 -18 27 -41 48 -41
40 -369 398 -423 463 l-29 34 18 34 c18 35 24 37 61 35 34 -3 109 97 143 191
27 72 33 127 21 166 -28 90 -28 91 -16 86 6 -2 26 -27 44 -54z m-74 4 c24 -63
-13 -223 -70 -305 -45 -66 -43 -65 -167 -36 -62 14 -136 29 -165 33 -29 4 -55
11 -58 15 -3 5 -9 9 -14 9 -10 0 -67 -85 -100 -151 -29 -56 -64 -89 -94 -89
-52 0 -176 57 -251 115 -28 22 -14 29 124 54 263 50 542 174 716 320 33 28 63
51 66 51 4 0 10 -7 13 -16z m-1070 -403 c3 -4 -17 -45 -43 -89 -117 -193 -210
-431 -233 -595 -7 -45 -16 -88 -22 -96 -13 -17 -107 -7 -191 21 -85 29 -237
101 -254 121 -18 23 -8 71 26 116 80 105 249 284 342 362 133 112 204 151 291
159 36 4 68 8 72 9 4 0 9 -3 12 -8z m-1332 -292 c83 -17 192 -73 226 -116 30
-40 67 -133 52 -133 -5 0 -12 5 -16 11 -12 21 -109 59 -165 65 l-57 6 -6 40
c-8 51 -48 90 -119 117 l-52 20 42 0 c23 1 66 -4 95 -10z m-94 -35 c59 -19
112 -71 112 -107 0 -20 -8 -25 -62 -36 -82 -17 -151 -55 -199 -110 -69 -78
-42 -86 37 -11 125 119 294 140 423 54 48 -31 79 -72 59 -78 -103 -28 -130
-41 -173 -78 -50 -44 -83 -104 -67 -120 6 -6 13 1 20 20 15 44 70 100 121 126
128 64 216 32 312 -114 20 -30 39 -66 42 -79 13 -54 -36 -100 -72 -67 -10 9
-25 16 -34 16 -10 0 -17 10 -19 28 -4 24 -5 25 -12 7 -5 -11 -19 -44 -33 -73
-14 -29 -23 -56 -20 -58 7 -7 57 48 57 63 0 22 20 24 42 4 34 -33 84 -38 118
-12 29 21 29 21 40 2 31 -60 -11 -131 -102 -172 -135 -60 -442 -8 -713 121
-184 88 -296 184 -335 286 -61 164 23 354 180 405 41 14 220 3 278 -17z m860
-431 c90 -35 134 -47 190 -51 42 -3 75 -10 77 -16 2 -6 6 -51 9 -99 l5 -88
-55 -25 c-100 -44 -320 -94 -418 -94 -28 0 -27 1 23 46 58 53 72 94 47 142 -9
17 -25 33 -35 37 -18 6 -98 151 -89 161 4 3 107 32 121 33 4 1 60 -20 125 -46z
m194 -849 c119 -37 299 -110 398 -159 137 -70 135 -58 31 -153 -99 -91 -232
-244 -289 -334 -21 -32 -40 -58 -43 -58 -3 0 -13 16 -23 36 -42 89 -108 147
-286 254 -58 34 -106 64 -108 65 -5 5 46 163 64 198 37 72 129 177 155 177 10
0 55 -12 101 -26z m-664 -263 c47 -24 52 -35 22 -51 -14 -7 -43 -6 -106 5 -48
8 -99 15 -114 15 -34 0 -56 22 -38 38 36 29 174 25 236 -7z m179 -85 c25 -22
26 -25 10 -31 -44 -17 -131 24 -96 46 25 15 57 10 86 -15z m3113 -248 c0 -154
-12 -275 -36 -349 -10 -33 -63 -44 -209 -44 -123 1 -147 4 -200 24 -98 39
-133 91 -179 266 -22 82 -46 193 -46 209 0 11 49 15 223 19 165 4 245 11 312
25 50 11 100 20 113 21 l22 1 0 -172z m-73 -520 c-3 -8 -6 -5 -6 6 -1 11 2 17
5 13 3 -3 4 -12 1 -19z m-463 -114 c9 -3 16 -10 16 -16 0 -15 39 -90 65 -127
19 -26 22 -37 14 -47 -27 -32 -104 1 -139 58 -44 72 -16 155 44 132z m-117
-46 c-3 -8 -6 -5 -6 6 -1 11 2 17 5 13 3 -3 4 -12 1 -19z m376 5 c-13 -2 -33
-2 -45 0 -13 2 -3 4 22 4 25 0 35 -2 23 -4z m204 -45 c-3 -8 -6 -5 -6 6 -1 11
2 17 5 13 3 -3 4 -12 1 -19z m-249 -138 c49 -22 53 -34 15 -47 -74 -25 -173
23 -115 56 25 15 52 13 100 -9z"/>
<path d="M4042 5220 c-108 -23 -178 -112 -142 -181 19 -34 67 -25 117 22 l45
41 97 -6 c113 -8 131 -4 131 33 0 30 -30 64 -71 79 -40 16 -130 21 -177 12z"/>
<path d="M4271 4935 c-71 -20 -105 -46 -125 -95 -24 -61 -1 -109 52 -110 19 0
28 10 44 49 30 70 61 85 158 78 57 -5 82 -3 96 7 16 12 16 16 4 31 -38 46
-141 64 -229 40z"/>
<path d="M2940 4864 c-78 -28 -140 -89 -140 -139 0 -27 38 -55 74 -55 26 0 46
10 82 41 57 49 75 56 159 65 104 11 124 46 49 84 -42 21 -169 24 -224 4z"/>
<path d="M3146 4616 c-52 -19 -86 -45 -113 -86 -28 -41 -29 -70 -3 -98 36 -38
66 -29 106 33 20 32 47 61 62 67 16 6 62 8 113 4 69 -4 89 -3 99 9 43 52 -164
108 -264 71z"/>
<path d="M3702 4494 c-30 -21 -44 -58 -33 -87 22 -56 148 -75 194 -29 26 27
16 57 -15 45 -13 -4 -41 -8 -63 -8 -52 0 -60 27 -16 53 17 9 31 23 31 30 0 18
-71 15 -98 -4z"/>
<path d="M4175 4385 c-229 -43 -616 -191 -646 -248 -25 -46 51 -131 172 -191
93 -47 162 -59 289 -53 168 7 295 63 408 179 80 82 116 209 76 266 -38 55
-155 73 -299 47z m240 -19 c43 -18 57 -45 53 -104 l-3 -47 -55 5 c-120 11
-243 2 -335 -25 -117 -34 -297 -122 -358 -175 -54 -48 -58 -47 -129 24 -84 84
-61 110 192 209 121 47 255 88 361 112 86 18 230 19 274 1z m26 -183 c14 -14
-42 -92 -98 -139 -69 -57 -108 -79 -193 -108 -137 -46 -289 -44 -400 6 l-45
20 43 38 c76 68 261 154 402 185 71 16 274 15 291 -2z"/>
<path d="M9021 6059 c-403 -43 -940 -281 -1192 -531 -79 -79 -160 -190 -184
-253 -17 -42 -17 -43 -73 -47 -63 -6 -84 -24 -103 -89 -7 -21 -15 -39 -19 -39
-3 0 -23 23 -45 51 -44 58 -135 136 -182 155 -48 21 -88 17 -120 -10 -25 -22
-28 -31 -28 -84 1 -33 5 -66 11 -73 6 -8 23 -36 39 -64 l29 -50 -25 17 c-14 9
-52 35 -84 57 -77 54 -123 66 -170 47 -73 -31 -67 -112 16 -215 27 -34 46 -61
41 -61 -4 0 -25 5 -46 11 -81 22 -180 -17 -156 -62 15 -28 87 -78 215 -150
282 -160 380 -236 492 -381 53 -69 54 -60 -18 -243 -76 -193 -105 -240 -223
-362 -60 -62 -113 -118 -118 -125 -17 -28 -8 -85 21 -124 44 -61 168 -175 256
-235 210 -146 555 -305 703 -325 28 -3 52 -10 52 -14 0 -13 -153 -239 -219
-325 -57 -73 -61 -80 -45 -92 26 -19 78 -32 177 -45 l87 -12 0 -34 c0 -18 -4
-41 -10 -51 -19 -36 -32 -282 -21 -393 17 -175 61 -241 168 -253 93 -10 93
-11 33 -69 -208 -201 -460 -379 -570 -402 -74 -15 -108 -34 -157 -87 -174
-188 -60 -532 212 -639 72 -28 90 -31 190 -32 99 0 117 3 180 29 98 40 186
127 209 207 21 73 20 112 -4 183 -25 73 -25 73 5 37 41 -49 100 -72 183 -72
198 0 266 59 265 230 -1 47 -6 97 -11 112 -10 25 -8 28 52 66 l64 40 110 -6
c138 -6 268 10 442 54 228 58 435 150 539 240 63 54 119 146 127 206 7 49 7
50 68 78 89 40 253 136 316 185 116 90 173 175 168 252 l-3 46 -86 53 c-47 29
-125 88 -173 131 -49 43 -112 97 -141 119 -36 28 -50 45 -44 51 12 12 0 42
-56 142 -19 35 -34 66 -32 67 2 2 56 17 120 33 195 51 400 139 580 249 31 19
57 39 57 45 0 5 -10 42 -22 81 -29 96 -31 257 -4 374 11 45 27 89 35 96 27 24
211 112 311 149 93 35 200 62 430 111 150 31 230 66 230 99 0 34 -18 46 -89
59 l-60 11 69 35 c113 56 166 135 130 192 -13 21 -98 17 -193 -10 -44 -12 -81
-20 -83 -17 -3 2 11 16 31 31 94 72 131 137 106 185 -26 48 -158 18 -328 -75
-83 -44 -95 -46 -68 -10 18 24 19 85 2 107 -43 55 -104 60 -167 14 -18 -14
-35 -24 -36 -22 -1 1 2 22 6 47 13 63 12 215 -1 286 -42 236 -176 458 -391
650 -64 57 -212 159 -302 208 -81 45 -252 115 -355 145 -109 33 -476 95 -646
111 -129 12 -355 11 -474 -1z m700 -185 l70 -16 25 -53 c28 -63 29 -69 8 -89
-10 -11 -34 -16 -75 -16 -71 0 -75 -12 -24 -69 55 -60 39 -101 -50 -126 -46
-14 -59 -14 -125 0 -90 19 -143 48 -166 90 -24 46 -13 73 56 142 39 40 60 69
60 84 1 67 78 86 221 53z m477 -224 c26 -16 32 -26 32 -53 0 -31 -33 -90 -62
-109 -16 -11 -103 0 -145 18 -29 11 -33 18 -33 49 0 20 5 45 11 56 30 56 135
77 197 39z m333 -89 c83 -37 111 -91 75 -143 -9 -12 -47 -41 -84 -64 -44 -26
-73 -52 -84 -74 -23 -44 -34 -50 -88 -44 -103 13 -130 36 -130 114 0 37 15 47
77 52 28 3 64 13 78 22 25 16 26 22 20 63 -13 88 40 116 136 74z m-3275 -306
c19 -14 65 -63 105 -108 75 -87 115 -127 128 -127 4 0 5 28 3 63 -4 56 -1 67
20 92 19 21 35 29 74 32 44 5 52 2 77 -23 l28 -27 -2 -216 c-3 -282 13 -357
108 -500 49 -74 202 -231 281 -289 60 -45 63 -49 58 -81 -13 -83 -125 -226
-234 -299 -51 -34 -55 -35 -80 -21 -33 18 -69 71 -124 179 -94 188 -219 370
-332 482 -88 88 -165 145 -289 215 -197 110 -307 189 -307 220 0 24 128 12
219 -21 41 -14 76 -24 78 -22 2 2 -18 20 -45 40 -102 74 -166 168 -160 234 2
29 8 38 30 46 46 16 97 -8 217 -104 146 -116 177 -122 100 -19 -68 89 -96 165
-90 247 3 47 79 51 137 7z m2358 -64 c-6 -34 -3 -41 20 -56 38 -25 129 -30
209 -11 38 9 70 16 71 16 2 0 6 -13 9 -28 8 -38 182 -204 308 -295 110 -79
317 -184 442 -223 70 -23 87 -32 87 -48 0 -33 -128 -279 -184 -352 -135 -177
-362 -297 -686 -363 -302 -61 -669 -57 -923 9 -281 74 -527 215 -659 380 -86
107 -138 244 -138 363 0 71 22 182 46 234 17 37 11 35 190 57 395 47 767 149
1084 296 69 32 126 58 128 59 1 1 -1 -17 -4 -38z m1745 -595 c21 -22 22 -25 7
-60 -8 -20 -27 -52 -42 -71 -38 -50 -15 -46 114 21 166 88 176 92 226 105 64
16 101 1 91 -38 -15 -61 -79 -121 -210 -196 -111 -64 -80 -68 94 -12 79 25
170 48 202 52 58 6 59 6 59 -20 0 -60 -116 -146 -261 -194 l-84 -28 130 -5
c127 -5 155 -11 155 -31 0 -21 -110 -59 -270 -93 -247 -54 -325 -74 -436 -117
-117 -45 -179 -82 -473 -277 -117 -78 -238 -154 -268 -169 l-56 -27 -24 30
c-53 66 -84 205 -69 308 7 43 9 46 49 57 147 39 387 149 497 227 143 102 205
175 330 390 45 78 92 149 103 157 12 8 42 15 67 15 36 0 52 -5 69 -24z m-3204
-416 c3 -6 3 -20 0 -31 -7 -21 -7 -21 -31 2 -18 17 -21 25 -12 31 18 11 36 10
43 -2z m86 -79 c78 -63 203 -127 279 -143 39 -8 60 -17 60 -26 0 -47 -204
-602 -221 -602 -12 0 -147 49 -199 72 -100 45 -274 155 -355 225 l-79 68 54 6
c69 8 93 18 176 70 107 68 185 186 207 316 6 35 12 63 14 63 2 0 30 -22 64
-49z m504 -221 c27 -12 51 -23 53 -25 2 -1 -11 -25 -27 -53 -42 -68 -42 -121
-1 -156 17 -14 47 -28 68 -31 20 -3 48 -12 62 -20 14 -8 44 -24 68 -37 38 -20
42 -25 38 -53 -3 -16 -8 -59 -11 -95 -4 -35 -19 -103 -35 -150 -72 -218 -87
-322 -52 -352 9 -9 43 -25 75 -37 74 -27 153 -67 194 -98 21 -16 37 -22 46
-16 37 21 261 241 272 267 17 40 4 82 -53 180 -79 133 -114 199 -138 259 l-23
58 41 27 c22 15 57 37 76 49 68 41 77 73 36 122 l-26 31 24 0 c33 0 92 -66
263 -295 148 -199 475 -717 479 -759 1 -18 -156 -154 -233 -200 -86 -52 -143
-76 -250 -102 -305 -76 -714 -84 -1231 -24 -203 24 -529 68 -552 76 -27 8 -22
22 35 100 215 295 272 386 394 624 52 103 88 182 118 265 14 39 30 79 35 90
13 31 47 150 70 250 11 50 25 107 31 127 l12 37 46 -19 c25 -10 68 -28 96 -40z
m1605 -1 c0 -4 -11 -10 -24 -13 -13 -3 -31 -9 -40 -12 -18 -7 -20 4 -6 41 10
26 10 26 40 8 16 -9 30 -20 30 -24z m-90 27 c0 -2 -11 -34 -25 -70 -67 -177 3
-399 141 -452 46 -17 46 -18 21 -30 -28 -15 -214 -64 -374 -97 l-112 -24 -19
21 c-11 11 -38 50 -62 86 -65 99 -163 221 -256 319 l-85 89 68 7 c254 23 407
54 583 119 89 33 120 41 120 32z m-2487 -126 l38 -50 -36 0 c-65 0 -90 30 -69
84 10 26 27 18 67 -34z m2706 -346 c-13 -15 -66 -19 -87 -5 -10 6 1 17 40 38
l53 31 3 -25 c2 -13 -2 -31 -9 -39z m-411 -1701 c-80 -145 -139 -204 -263
-263 -180 -85 -401 -148 -595 -169 -134 -15 -270 -24 -270 -19 0 2 36 33 80
67 89 71 192 176 212 218 13 28 15 28 171 45 228 24 419 70 600 144 45 18 85
33 90 34 4 0 -7 -26 -25 -57z m-1527 -109 c158 -17 485 -33 592 -28 43 2 67 0
67 -7 0 -41 -238 -254 -373 -334 -45 -27 -167 -88 -272 -136 -104 -47 -210
-96 -235 -109 -38 -20 -54 -22 -115 -16 -144 12 -293 69 -374 142 l-45 41 84
40 c47 22 117 63 155 90 84 60 233 199 295 276 25 31 52 56 61 57 9 0 81 -7
160 -16z m203 -557 c-2 -100 -16 -162 -39 -171 -35 -13 -172 80 -150 102 3 4
37 8 75 10 41 3 74 10 80 17 17 20 -65 30 -130 16 -62 -13 -62 -13 -58 -1 2 8
200 115 219 119 3 1 4 -41 3 -92z m-850 -19 c87 -56 158 -79 259 -86 63 -3 87
-8 87 -18 0 -12 22 -62 51 -116 14 -27 10 -150 -5 -171 -8 -10 -18 -18 -23
-17 -4 1 -46 -1 -93 -5 -257 -20 -440 94 -440 275 0 36 7 71 20 99 27 54 60
92 74 84 6 -4 37 -24 70 -45z m406 -94 c0 -8 -4 -12 -10 -9 -5 3 -10 10 -10
16 0 5 5 9 10 9 6 0 10 -7 10 -16z"/>
<path d="M9609 5853 c-13 -17 -13 -17 6 -3 11 8 22 16 24 17 2 2 0 3 -6 3 -6
0 -17 -8 -24 -17z"/>
<path d="M9459 5663 c-13 -16 -12 -17 4 -4 9 7 17 15 17 17 0 8 -8 3 -21 -13z"/>
<path d="M10561 5494 c0 -11 3 -14 6 -6 3 7 2 16 -1 19 -3 4 -6 -2 -5 -13z"/>
<path d="M8908 4920 c-43 -13 -103 -50 -117 -73 -24 -38 6 -47 138 -40 126 6
178 18 195 45 32 52 -116 98 -216 68z"/>
<path d="M10018 4836 c-55 -15 -78 -32 -78 -56 0 -30 26 -43 75 -37 34 5 61 1
113 -19 55 -20 73 -23 96 -14 24 9 27 14 24 47 -3 34 -8 40 -48 60 -59 28
-124 35 -182 19z"/>
<path d="M8746 4771 c-9 -14 4 -40 26 -52 32 -17 42 3 18 34 -22 28 -35 33
-44 18z"/>
<path d="M8640 4731 c0 -11 82 -52 89 -45 10 9 -49 54 -70 54 -10 0 -19 -4
-19 -9z"/>
<path d="M8922 4705 c-62 -17 -99 -40 -107 -66 -14 -43 26 -51 96 -19 67 30
108 26 162 -16 32 -25 53 -35 73 -32 42 5 51 29 25 67 -46 65 -152 93 -249 66z"/>
<path d="M8652 4652 c-25 -8 1 -22 39 -22 22 0 38 4 35 9 -7 10 -57 19 -74 13z"/>
<path d="M9913 4615 c-50 -25 -68 -51 -53 -75 9 -14 28 -11 113 20 72 26 97
20 143 -37 31 -37 41 -44 68 -41 26 3 31 7 34 34 10 101 -178 162 -305 99z"/>
<path d="M10295 4626 c-47 -14 -45 -32 3 -29 45 3 79 22 61 34 -17 10 -14 11
-64 -5z"/>
<path d="M10295 4550 c-7 -11 39 -25 54 -15 6 3 11 10 11 16 0 12 -57 12 -65
-1z"/>
<path d="M10270 4480 c0 -5 17 -10 38 -10 27 0 33 3 22 10 -20 13 -60 13 -60
0z"/>
<path d="M9513 4462 c-12 -2 -27 -10 -33 -18 -11 -12 -5 -14 38 -14 40 0 54
-4 61 -18 14 -27 -5 -42 -50 -42 -40 0 -60 -17 -38 -31 48 -30 149 7 149 55 0
42 -67 78 -127 68z"/>
<path d="M9118 4224 c-14 -3 -32 -12 -38 -19 -30 -36 30 -153 103 -206 113
-82 340 -93 502 -26 63 26 161 91 169 112 18 48 1 64 -95 85 -143 30 -568 66
-641 54z m333 -29 c162 -16 328 -42 367 -56 28 -11 28 -36 0 -66 -27 -28 -30
-28 -76 0 -157 99 -393 108 -603 22 -18 -7 -26 6 -39 62 -5 19 -3 36 3 42 16
16 168 14 348 -4z m131 -91 c58 -14 115 -39 153 -68 19 -14 18 -16 -37 -41
-124 -57 -298 -69 -413 -30 -59 20 -135 70 -135 89 0 7 28 22 63 35 116 41
243 46 369 15z"/>
<path d="M7964 940 c-91 -13 -202 -65 -182 -86 3 -2 45 7 94 21 83 25 98 26
217 20 109 -6 126 -5 121 8 -3 8 -16 19 -28 25 -35 15 -152 22 -222 12z"/>
<path d="M7970 779 c-52 -14 -110 -41 -110 -51 0 -12 25 -10 105 7 39 8 100
15 137 15 66 0 95 13 67 31 -18 11 -154 10 -199 -2z"/>
</g>
</svg>
